<?xml version="1.0" encoding="UTF-8"?>
<svg id="favicon" xmlns="http://www.w3.org/2000/svg" viewBox="0 0 500 500">
<defs>
<style>.cls-1 {
  fill: #000;
}

@media (prefers-color-scheme: dark) {
  .cls-1 {
    fill: #fff;
  }
}

</style>
</defs>
<g id="D"><path class="cls-1" d="M166.62,249.78c0,60.12,49.07,110.52,110.51,110.52h37.13V139.26h-37.13c-61.45,0-110.51,50.39-110.51,110.51Z"></path><path class="cls-1" d="M463,0H37C16.57,0,0,16.57,0,37V463c0,20.43,16.57,37,37,37H463c20.43,0,37-16.57,37-37V37c0-20.43-16.57-37-37-37Zm-105.41,404.5h-82.66c-84.43,0-152.51-70.29-152.51-154.72S190.49,97.27,274.92,95.94l82.66-.44V404.5Z"></path></g></svg>